<mxfile host="app.diagrams.net" agent="Mozilla/5.0 (Windows NT 10.0; Win64; x64) AppleWebKit/537.36 (KHTML, like Gecko) Chrome/134.0.0.0 Safari/537.36 OPR/119.0.0.0" version="27.1.6">
  <diagram name="PÃ¡gina-1" id="16hyKk7FojDQc5p7C43a">
    <mxGraphModel dx="1372" dy="744" grid="1" gridSize="10" guides="1" tooltips="1" connect="1" arrows="1" fold="1" page="1" pageScale="1" pageWidth="827" pageHeight="1169" math="0" shadow="0">
      <root>
        <mxCell id="0" />
        <mxCell id="1" parent="0" />
        <mxCell id="lMK4RXTlQLivx-1cffn1-1" value="&lt;h1 style=&quot;margin-top: 0px;&quot;&gt;&lt;span style=&quot;background-color: transparent; color: light-dark(rgb(0, 0, 0), rgb(255, 255, 255));&quot;&gt;VU Dataflow&lt;/span&gt;&lt;/h1&gt;&lt;h1 style=&quot;margin-top: 0px;&quot;&gt;&lt;br&gt;&lt;/h1&gt;" style="text;html=1;whiteSpace=wrap;overflow=hidden;rounded=0;" vertex="1" parent="1">
          <mxGeometry width="180" height="40" as="geometry" />
        </mxCell>
        <mxCell id="lMK4RXTlQLivx-1cffn1-54" style="edgeStyle=orthogonalEdgeStyle;rounded=0;orthogonalLoop=1;jettySize=auto;html=1;entryX=0;entryY=0.5;entryDx=0;entryDy=0;" edge="1" parent="1" source="lMK4RXTlQLivx-1cffn1-2" target="lMK4RXTlQLivx-1cffn1-12">
          <mxGeometry relative="1" as="geometry" />
        </mxCell>
        <mxCell id="lMK4RXTlQLivx-1cffn1-2" value="Se carga el DS" style="rounded=0;whiteSpace=wrap;html=1;" vertex="1" parent="1">
          <mxGeometry x="150" y="30" width="120" height="60" as="geometry" />
        </mxCell>
        <mxCell id="lMK4RXTlQLivx-1cffn1-5" value="" style="endArrow=none;dashed=1;html=1;rounded=0;" edge="1" parent="1">
          <mxGeometry width="50" height="50" relative="1" as="geometry">
            <mxPoint x="40" y="230" as="sourcePoint" />
            <mxPoint x="800" y="230" as="targetPoint" />
          </mxGeometry>
        </mxCell>
        <mxCell id="lMK4RXTlQLivx-1cffn1-56" style="edgeStyle=orthogonalEdgeStyle;rounded=0;orthogonalLoop=1;jettySize=auto;html=1;" edge="1" parent="1" source="lMK4RXTlQLivx-1cffn1-12" target="lMK4RXTlQLivx-1cffn1-55">
          <mxGeometry relative="1" as="geometry">
            <Array as="points">
              <mxPoint x="520" y="130" />
              <mxPoint x="210" y="130" />
            </Array>
          </mxGeometry>
        </mxCell>
        <mxCell id="lMK4RXTlQLivx-1cffn1-12" value="Se obtienen los pedimentos y de divide en sus componentes&lt;div&gt;Registros (500 - 702)&lt;/div&gt;" style="shape=process;whiteSpace=wrap;html=1;backgroundOutline=1;" vertex="1" parent="1">
          <mxGeometry x="440" y="30" width="160" height="60" as="geometry" />
        </mxCell>
        <mxCell id="lMK4RXTlQLivx-1cffn1-23" style="edgeStyle=orthogonalEdgeStyle;rounded=0;orthogonalLoop=1;jettySize=auto;html=1;" edge="1" parent="1" source="lMK4RXTlQLivx-1cffn1-17">
          <mxGeometry relative="1" as="geometry">
            <mxPoint x="210" y="350" as="targetPoint" />
          </mxGeometry>
        </mxCell>
        <mxCell id="lMK4RXTlQLivx-1cffn1-17" value="Por cada pedimento" style="shape=trapezoid;perimeter=trapezoidPerimeter;whiteSpace=wrap;html=1;fixedSize=1;" vertex="1" parent="1">
          <mxGeometry x="130" y="290" width="160" height="30" as="geometry" />
        </mxCell>
        <mxCell id="lMK4RXTlQLivx-1cffn1-22" style="edgeStyle=orthogonalEdgeStyle;rounded=0;orthogonalLoop=1;jettySize=auto;html=1;entryX=0;entryY=0.5;entryDx=0;entryDy=0;exitX=1;exitY=0;exitDx=0;exitDy=0;" edge="1" parent="1" source="lMK4RXTlQLivx-1cffn1-18" target="lMK4RXTlQLivx-1cffn1-17">
          <mxGeometry relative="1" as="geometry">
            <mxPoint x="150" y="455" as="sourcePoint" />
            <mxPoint x="290" y="305" as="targetPoint" />
            <Array as="points">
              <mxPoint x="110" y="887" />
              <mxPoint x="110" y="305" />
            </Array>
          </mxGeometry>
        </mxCell>
        <mxCell id="lMK4RXTlQLivx-1cffn1-46" value="Loop" style="edgeLabel;html=1;align=center;verticalAlign=middle;resizable=0;points=[];" vertex="1" connectable="0" parent="lMK4RXTlQLivx-1cffn1-22">
          <mxGeometry x="-0.5624" y="1" relative="1" as="geometry">
            <mxPoint as="offset" />
          </mxGeometry>
        </mxCell>
        <mxCell id="lMK4RXTlQLivx-1cffn1-98" style="edgeStyle=orthogonalEdgeStyle;rounded=0;orthogonalLoop=1;jettySize=auto;html=1;" edge="1" parent="1" source="lMK4RXTlQLivx-1cffn1-18" target="lMK4RXTlQLivx-1cffn1-97">
          <mxGeometry relative="1" as="geometry">
            <Array as="points">
              <mxPoint x="210" y="940" />
              <mxPoint x="300" y="940" />
              <mxPoint x="300" y="1060" />
            </Array>
          </mxGeometry>
        </mxCell>
        <mxCell id="lMK4RXTlQLivx-1cffn1-18" value="" style="shape=trapezoid;perimeter=trapezoidPerimeter;whiteSpace=wrap;html=1;fixedSize=1;rotation=-180;" vertex="1" parent="1">
          <mxGeometry x="130" y="860" width="160" height="30" as="geometry" />
        </mxCell>
        <mxCell id="lMK4RXTlQLivx-1cffn1-40" style="edgeStyle=orthogonalEdgeStyle;rounded=0;orthogonalLoop=1;jettySize=auto;html=1;entryX=0.5;entryY=1;entryDx=0;entryDy=0;" edge="1" parent="1" source="lMK4RXTlQLivx-1cffn1-32" target="lMK4RXTlQLivx-1cffn1-37">
          <mxGeometry relative="1" as="geometry" />
        </mxCell>
        <mxCell id="lMK4RXTlQLivx-1cffn1-41" value="No" style="edgeLabel;html=1;align=center;verticalAlign=middle;resizable=0;points=[];" vertex="1" connectable="0" parent="lMK4RXTlQLivx-1cffn1-40">
          <mxGeometry x="-0.45" y="-1" relative="1" as="geometry">
            <mxPoint as="offset" />
          </mxGeometry>
        </mxCell>
        <mxCell id="lMK4RXTlQLivx-1cffn1-61" style="edgeStyle=orthogonalEdgeStyle;rounded=0;orthogonalLoop=1;jettySize=auto;html=1;entryX=1;entryY=0.5;entryDx=0;entryDy=0;" edge="1" parent="1" source="lMK4RXTlQLivx-1cffn1-32" target="lMK4RXTlQLivx-1cffn1-58">
          <mxGeometry relative="1" as="geometry">
            <Array as="points">
              <mxPoint x="310" y="550" />
              <mxPoint x="310" y="810" />
            </Array>
          </mxGeometry>
        </mxCell>
        <mxCell id="lMK4RXTlQLivx-1cffn1-32" value="Si pedimento completo" style="rhombus;whiteSpace=wrap;html=1;" vertex="1" parent="1">
          <mxGeometry x="170" y="510" width="80" height="80" as="geometry" />
        </mxCell>
        <mxCell id="lMK4RXTlQLivx-1cffn1-44" style="edgeStyle=orthogonalEdgeStyle;rounded=0;orthogonalLoop=1;jettySize=auto;html=1;entryX=0.5;entryY=0;entryDx=0;entryDy=0;" edge="1" parent="1" source="lMK4RXTlQLivx-1cffn1-33" target="lMK4RXTlQLivx-1cffn1-32">
          <mxGeometry relative="1" as="geometry" />
        </mxCell>
        <mxCell id="lMK4RXTlQLivx-1cffn1-33" value="Obtener pedimento Completo" style="shape=process;whiteSpace=wrap;html=1;backgroundOutline=1;" vertex="1" parent="1">
          <mxGeometry x="150" y="410" width="120" height="60" as="geometry" />
        </mxCell>
        <mxCell id="lMK4RXTlQLivx-1cffn1-45" style="edgeStyle=orthogonalEdgeStyle;rounded=0;orthogonalLoop=1;jettySize=auto;html=1;entryX=0.5;entryY=0;entryDx=0;entryDy=0;" edge="1" parent="1" source="lMK4RXTlQLivx-1cffn1-36" target="lMK4RXTlQLivx-1cffn1-33">
          <mxGeometry relative="1" as="geometry" />
        </mxCell>
        <mxCell id="lMK4RXTlQLivx-1cffn1-36" value="while intentos &amp;lt;=5" style="shape=trapezoid;perimeter=trapezoidPerimeter;whiteSpace=wrap;html=1;fixedSize=1;" vertex="1" parent="1">
          <mxGeometry x="140" y="350" width="140" height="30" as="geometry" />
        </mxCell>
        <mxCell id="lMK4RXTlQLivx-1cffn1-43" style="edgeStyle=orthogonalEdgeStyle;rounded=0;orthogonalLoop=1;jettySize=auto;html=1;entryX=0;entryY=0.5;entryDx=0;entryDy=0;" edge="1" parent="1" source="lMK4RXTlQLivx-1cffn1-37" target="lMK4RXTlQLivx-1cffn1-36">
          <mxGeometry relative="1" as="geometry">
            <Array as="points">
              <mxPoint x="120" y="655" />
              <mxPoint x="120" y="365" />
            </Array>
          </mxGeometry>
        </mxCell>
        <mxCell id="lMK4RXTlQLivx-1cffn1-47" value="Loop" style="edgeLabel;html=1;align=center;verticalAlign=middle;resizable=0;points=[];" vertex="1" connectable="0" parent="lMK4RXTlQLivx-1cffn1-43">
          <mxGeometry x="-0.1412" y="-4" relative="1" as="geometry">
            <mxPoint as="offset" />
          </mxGeometry>
        </mxCell>
        <mxCell id="lMK4RXTlQLivx-1cffn1-65" style="edgeStyle=orthogonalEdgeStyle;rounded=0;orthogonalLoop=1;jettySize=auto;html=1;entryX=0.5;entryY=0;entryDx=0;entryDy=0;" edge="1" parent="1" source="lMK4RXTlQLivx-1cffn1-37" target="lMK4RXTlQLivx-1cffn1-64">
          <mxGeometry relative="1" as="geometry" />
        </mxCell>
        <mxCell id="lMK4RXTlQLivx-1cffn1-37" value="" style="shape=trapezoid;perimeter=trapezoidPerimeter;whiteSpace=wrap;html=1;fixedSize=1;rotation=-180;" vertex="1" parent="1">
          <mxGeometry x="130" y="640" width="160" height="30" as="geometry" />
        </mxCell>
        <mxCell id="lMK4RXTlQLivx-1cffn1-48" value="" style="endArrow=none;dashed=1;html=1;rounded=0;" edge="1" parent="1">
          <mxGeometry width="50" height="50" relative="1" as="geometry">
            <mxPoint x="34" y="1030" as="sourcePoint" />
            <mxPoint x="794" y="1030" as="targetPoint" />
          </mxGeometry>
        </mxCell>
        <mxCell id="lMK4RXTlQLivx-1cffn1-52" value="Cada pedimento contara con 3 estados&lt;div&gt;- Procesado 1&lt;/div&gt;&lt;div&gt;- En espera 0&amp;nbsp;&lt;/div&gt;&lt;div&gt;- Fallido -1&lt;/div&gt;&lt;div&gt;&lt;b&gt;ESTO APLICA PARA TODAS LAS TAREAS&lt;/b&gt;&lt;/div&gt;" style="text;html=1;align=center;verticalAlign=middle;whiteSpace=wrap;rounded=0;" vertex="1" parent="1">
          <mxGeometry x="570" y="120" width="220" height="70" as="geometry" />
        </mxCell>
        <mxCell id="lMK4RXTlQLivx-1cffn1-57" style="edgeStyle=orthogonalEdgeStyle;rounded=0;orthogonalLoop=1;jettySize=auto;html=1;" edge="1" parent="1" source="lMK4RXTlQLivx-1cffn1-55">
          <mxGeometry relative="1" as="geometry">
            <mxPoint x="210" y="290" as="targetPoint" />
          </mxGeometry>
        </mxCell>
        <mxCell id="lMK4RXTlQLivx-1cffn1-89" style="edgeStyle=orthogonalEdgeStyle;rounded=0;orthogonalLoop=1;jettySize=auto;html=1;" edge="1" parent="1" source="lMK4RXTlQLivx-1cffn1-55" target="lMK4RXTlQLivx-1cffn1-69">
          <mxGeometry relative="1" as="geometry" />
        </mxCell>
        <mxCell id="lMK4RXTlQLivx-1cffn1-55" value="Se obtienen pedimentos con el estado de En espera 0" style="rounded=0;whiteSpace=wrap;html=1;" vertex="1" parent="1">
          <mxGeometry x="150" y="150" width="120" height="60" as="geometry" />
        </mxCell>
        <mxCell id="lMK4RXTlQLivx-1cffn1-62" style="edgeStyle=orthogonalEdgeStyle;rounded=0;orthogonalLoop=1;jettySize=auto;html=1;entryX=0.5;entryY=1;entryDx=0;entryDy=0;" edge="1" parent="1" source="lMK4RXTlQLivx-1cffn1-58" target="lMK4RXTlQLivx-1cffn1-18">
          <mxGeometry relative="1" as="geometry" />
        </mxCell>
        <mxCell id="lMK4RXTlQLivx-1cffn1-58" value="Cambia el estado del pedimento a 1" style="shape=process;whiteSpace=wrap;html=1;backgroundOutline=1;" vertex="1" parent="1">
          <mxGeometry x="150" y="780" width="120" height="60" as="geometry" />
        </mxCell>
        <mxCell id="lMK4RXTlQLivx-1cffn1-66" style="edgeStyle=orthogonalEdgeStyle;rounded=0;orthogonalLoop=1;jettySize=auto;html=1;entryX=0;entryY=0.5;entryDx=0;entryDy=0;" edge="1" parent="1" source="lMK4RXTlQLivx-1cffn1-64" target="lMK4RXTlQLivx-1cffn1-18">
          <mxGeometry relative="1" as="geometry">
            <Array as="points">
              <mxPoint x="360" y="730" />
              <mxPoint x="360" y="875" />
            </Array>
          </mxGeometry>
        </mxCell>
        <mxCell id="lMK4RXTlQLivx-1cffn1-64" value="Se cambia estado de pedimento a -1" style="shape=process;whiteSpace=wrap;html=1;backgroundOutline=1;" vertex="1" parent="1">
          <mxGeometry x="150" y="700" width="120" height="60" as="geometry" />
        </mxCell>
        <mxCell id="lMK4RXTlQLivx-1cffn1-68" style="edgeStyle=orthogonalEdgeStyle;rounded=0;orthogonalLoop=1;jettySize=auto;html=1;" edge="1" parent="1" source="lMK4RXTlQLivx-1cffn1-69">
          <mxGeometry relative="1" as="geometry">
            <mxPoint x="550" y="350" as="targetPoint" />
          </mxGeometry>
        </mxCell>
        <mxCell id="lMK4RXTlQLivx-1cffn1-69" value="Por cada pedimento" style="shape=trapezoid;perimeter=trapezoidPerimeter;whiteSpace=wrap;html=1;fixedSize=1;" vertex="1" parent="1">
          <mxGeometry x="470" y="290" width="160" height="30" as="geometry" />
        </mxCell>
        <mxCell id="lMK4RXTlQLivx-1cffn1-70" style="edgeStyle=orthogonalEdgeStyle;rounded=0;orthogonalLoop=1;jettySize=auto;html=1;entryX=0;entryY=0.5;entryDx=0;entryDy=0;exitX=1;exitY=0;exitDx=0;exitDy=0;" edge="1" parent="1" source="lMK4RXTlQLivx-1cffn1-72" target="lMK4RXTlQLivx-1cffn1-69">
          <mxGeometry relative="1" as="geometry">
            <mxPoint x="490" y="455" as="sourcePoint" />
            <mxPoint x="630" y="305" as="targetPoint" />
            <Array as="points">
              <mxPoint x="450" y="887" />
              <mxPoint x="450" y="305" />
            </Array>
          </mxGeometry>
        </mxCell>
        <mxCell id="lMK4RXTlQLivx-1cffn1-71" value="Loop" style="edgeLabel;html=1;align=center;verticalAlign=middle;resizable=0;points=[];" vertex="1" connectable="0" parent="lMK4RXTlQLivx-1cffn1-70">
          <mxGeometry x="-0.5624" y="1" relative="1" as="geometry">
            <mxPoint as="offset" />
          </mxGeometry>
        </mxCell>
        <mxCell id="lMK4RXTlQLivx-1cffn1-99" style="edgeStyle=orthogonalEdgeStyle;rounded=0;orthogonalLoop=1;jettySize=auto;html=1;" edge="1" parent="1" source="lMK4RXTlQLivx-1cffn1-72" target="lMK4RXTlQLivx-1cffn1-97">
          <mxGeometry relative="1" as="geometry">
            <Array as="points">
              <mxPoint x="550" y="940" />
              <mxPoint x="500" y="940" />
              <mxPoint x="500" y="1060" />
            </Array>
          </mxGeometry>
        </mxCell>
        <mxCell id="lMK4RXTlQLivx-1cffn1-72" value="" style="shape=trapezoid;perimeter=trapezoidPerimeter;whiteSpace=wrap;html=1;fixedSize=1;rotation=-180;" vertex="1" parent="1">
          <mxGeometry x="470" y="860" width="160" height="30" as="geometry" />
        </mxCell>
        <mxCell id="lMK4RXTlQLivx-1cffn1-73" style="edgeStyle=orthogonalEdgeStyle;rounded=0;orthogonalLoop=1;jettySize=auto;html=1;entryX=0.5;entryY=1;entryDx=0;entryDy=0;" edge="1" parent="1" source="lMK4RXTlQLivx-1cffn1-76" target="lMK4RXTlQLivx-1cffn1-84">
          <mxGeometry relative="1" as="geometry" />
        </mxCell>
        <mxCell id="lMK4RXTlQLivx-1cffn1-74" value="No" style="edgeLabel;html=1;align=center;verticalAlign=middle;resizable=0;points=[];" vertex="1" connectable="0" parent="lMK4RXTlQLivx-1cffn1-73">
          <mxGeometry x="-0.45" y="-1" relative="1" as="geometry">
            <mxPoint as="offset" />
          </mxGeometry>
        </mxCell>
        <mxCell id="lMK4RXTlQLivx-1cffn1-75" style="edgeStyle=orthogonalEdgeStyle;rounded=0;orthogonalLoop=1;jettySize=auto;html=1;entryX=1;entryY=0.5;entryDx=0;entryDy=0;" edge="1" parent="1" source="lMK4RXTlQLivx-1cffn1-76" target="lMK4RXTlQLivx-1cffn1-86">
          <mxGeometry relative="1" as="geometry">
            <Array as="points">
              <mxPoint x="650" y="550" />
              <mxPoint x="650" y="810" />
            </Array>
          </mxGeometry>
        </mxCell>
        <mxCell id="lMK4RXTlQLivx-1cffn1-76" value="Si pedimento completo" style="rhombus;whiteSpace=wrap;html=1;" vertex="1" parent="1">
          <mxGeometry x="510" y="510" width="80" height="80" as="geometry" />
        </mxCell>
        <mxCell id="lMK4RXTlQLivx-1cffn1-77" style="edgeStyle=orthogonalEdgeStyle;rounded=0;orthogonalLoop=1;jettySize=auto;html=1;entryX=0.5;entryY=0;entryDx=0;entryDy=0;" edge="1" parent="1" source="lMK4RXTlQLivx-1cffn1-78" target="lMK4RXTlQLivx-1cffn1-76">
          <mxGeometry relative="1" as="geometry" />
        </mxCell>
        <mxCell id="lMK4RXTlQLivx-1cffn1-78" value="Obtener pedimento Completo" style="shape=process;whiteSpace=wrap;html=1;backgroundOutline=1;" vertex="1" parent="1">
          <mxGeometry x="490" y="410" width="120" height="60" as="geometry" />
        </mxCell>
        <mxCell id="lMK4RXTlQLivx-1cffn1-79" style="edgeStyle=orthogonalEdgeStyle;rounded=0;orthogonalLoop=1;jettySize=auto;html=1;entryX=0.5;entryY=0;entryDx=0;entryDy=0;" edge="1" parent="1" source="lMK4RXTlQLivx-1cffn1-80" target="lMK4RXTlQLivx-1cffn1-78">
          <mxGeometry relative="1" as="geometry" />
        </mxCell>
        <mxCell id="lMK4RXTlQLivx-1cffn1-80" value="while intentos &amp;lt;=5" style="shape=trapezoid;perimeter=trapezoidPerimeter;whiteSpace=wrap;html=1;fixedSize=1;" vertex="1" parent="1">
          <mxGeometry x="480" y="350" width="140" height="30" as="geometry" />
        </mxCell>
        <mxCell id="lMK4RXTlQLivx-1cffn1-81" style="edgeStyle=orthogonalEdgeStyle;rounded=0;orthogonalLoop=1;jettySize=auto;html=1;entryX=0;entryY=0.5;entryDx=0;entryDy=0;" edge="1" parent="1" source="lMK4RXTlQLivx-1cffn1-84" target="lMK4RXTlQLivx-1cffn1-80">
          <mxGeometry relative="1" as="geometry">
            <Array as="points">
              <mxPoint x="460" y="655" />
              <mxPoint x="460" y="365" />
            </Array>
          </mxGeometry>
        </mxCell>
        <mxCell id="lMK4RXTlQLivx-1cffn1-82" value="Loop" style="edgeLabel;html=1;align=center;verticalAlign=middle;resizable=0;points=[];" vertex="1" connectable="0" parent="lMK4RXTlQLivx-1cffn1-81">
          <mxGeometry x="-0.1412" y="-4" relative="1" as="geometry">
            <mxPoint as="offset" />
          </mxGeometry>
        </mxCell>
        <mxCell id="lMK4RXTlQLivx-1cffn1-83" style="edgeStyle=orthogonalEdgeStyle;rounded=0;orthogonalLoop=1;jettySize=auto;html=1;entryX=0.5;entryY=0;entryDx=0;entryDy=0;" edge="1" parent="1" source="lMK4RXTlQLivx-1cffn1-84" target="lMK4RXTlQLivx-1cffn1-88">
          <mxGeometry relative="1" as="geometry" />
        </mxCell>
        <mxCell id="lMK4RXTlQLivx-1cffn1-84" value="" style="shape=trapezoid;perimeter=trapezoidPerimeter;whiteSpace=wrap;html=1;fixedSize=1;rotation=-180;" vertex="1" parent="1">
          <mxGeometry x="470" y="640" width="160" height="30" as="geometry" />
        </mxCell>
        <mxCell id="lMK4RXTlQLivx-1cffn1-85" style="edgeStyle=orthogonalEdgeStyle;rounded=0;orthogonalLoop=1;jettySize=auto;html=1;entryX=0.5;entryY=1;entryDx=0;entryDy=0;" edge="1" parent="1" source="lMK4RXTlQLivx-1cffn1-86" target="lMK4RXTlQLivx-1cffn1-72">
          <mxGeometry relative="1" as="geometry" />
        </mxCell>
        <mxCell id="lMK4RXTlQLivx-1cffn1-86" value="Cambia el estado del pedimento a 1" style="shape=process;whiteSpace=wrap;html=1;backgroundOutline=1;" vertex="1" parent="1">
          <mxGeometry x="490" y="780" width="120" height="60" as="geometry" />
        </mxCell>
        <mxCell id="lMK4RXTlQLivx-1cffn1-87" style="edgeStyle=orthogonalEdgeStyle;rounded=0;orthogonalLoop=1;jettySize=auto;html=1;entryX=0;entryY=0.5;entryDx=0;entryDy=0;" edge="1" parent="1" source="lMK4RXTlQLivx-1cffn1-88" target="lMK4RXTlQLivx-1cffn1-72">
          <mxGeometry relative="1" as="geometry">
            <Array as="points">
              <mxPoint x="700" y="730" />
              <mxPoint x="700" y="875" />
            </Array>
          </mxGeometry>
        </mxCell>
        <mxCell id="lMK4RXTlQLivx-1cffn1-88" value="Se cambia estado de pedimento a -1" style="shape=process;whiteSpace=wrap;html=1;backgroundOutline=1;" vertex="1" parent="1">
          <mxGeometry x="490" y="700" width="120" height="60" as="geometry" />
        </mxCell>
        <mxCell id="lMK4RXTlQLivx-1cffn1-91" value="Tarea Estado Pedimento" style="text;html=1;align=center;verticalAlign=middle;whiteSpace=wrap;rounded=0;" vertex="1" parent="1">
          <mxGeometry x="40" y="240" width="150" height="30" as="geometry" />
        </mxCell>
        <mxCell id="lMK4RXTlQLivx-1cffn1-92" value="Tarea de Edocument" style="text;html=1;align=center;verticalAlign=middle;whiteSpace=wrap;rounded=0;" vertex="1" parent="1">
          <mxGeometry x="400" y="240" width="130" height="30" as="geometry" />
        </mxCell>
        <mxCell id="lMK4RXTlQLivx-1cffn1-93" value="Tareas&lt;div&gt;- Estado del Pedimento&lt;br&gt;&lt;div&gt;- Pedimento Completo&lt;/div&gt;&lt;div&gt;- Partidas&lt;/div&gt;&lt;/div&gt;&lt;div&gt;- Remesas&lt;/div&gt;&lt;div&gt;- Acuses&lt;/div&gt;&lt;div&gt;-&amp;nbsp; Edocument&lt;/div&gt;" style="text;html=1;align=center;verticalAlign=middle;whiteSpace=wrap;rounded=0;" vertex="1" parent="1">
          <mxGeometry x="650" y="350" width="160" height="100" as="geometry" />
        </mxCell>
        <mxCell id="lMK4RXTlQLivx-1cffn1-94" value="Inicio" style="ellipse;whiteSpace=wrap;html=1;aspect=fixed;" vertex="1" parent="1">
          <mxGeometry x="20" y="40" width="40" height="40" as="geometry" />
        </mxCell>
        <mxCell id="lMK4RXTlQLivx-1cffn1-96" style="edgeStyle=orthogonalEdgeStyle;rounded=0;orthogonalLoop=1;jettySize=auto;html=1;entryX=-0.083;entryY=0.5;entryDx=0;entryDy=0;entryPerimeter=0;" edge="1" parent="1" source="lMK4RXTlQLivx-1cffn1-94" target="lMK4RXTlQLivx-1cffn1-2">
          <mxGeometry relative="1" as="geometry" />
        </mxCell>
        <mxCell id="lMK4RXTlQLivx-1cffn1-97" value="Fin" style="ellipse;whiteSpace=wrap;html=1;aspect=fixed;" vertex="1" parent="1">
          <mxGeometry x="380" y="1040" width="40" height="40" as="geometry" />
        </mxCell>
      </root>
    </mxGraphModel>
  </diagram>
</mxfile>
